<?xml version="1.0" encoding="utf-8"?>
<!-- Generator: Adobe Illustrator 27.1.1, SVG Export Plug-In . SVG Version: 6.00 Build 0)  -->
<svg version="1.1" id="_レイヤー_2" xmlns="http://www.w3.org/2000/svg" xmlns:xlink="http://www.w3.org/1999/xlink" x="0px"
	 y="0px" viewBox="0 0 273.8 260.1" style="enable-background:new 0 0 273.8 260.1;" xml:space="preserve">
<style type="text/css">
	.st0{fill:#666666;}
	.st1{fill:#FFFFFF;}
	.st2{fill:url(#SVGID_1_);}
</style>
<g>
	<path class="st0" d="M177.2,96.6L223.7,48l1.8-1.9l-2.3-4.5l-14.5-28.7L9.7,113.4l87,59l-46.1,48.3l-2.8,2.9l4.3,2.9l30.4,20.6
		l181.6-91.7L177.2,96.6L177.2,96.6z M21.3,114.2l184.8-93.3l11.8,23.4L61.6,123.2l49.8,33.8l-10.6,11.1L21.3,114.2z M101.7,175.7
		l18.9-19.8l-47.3-32.1l134.7-68l-35.6,37.3L153.4,113l47.2,32L66.3,212.8L101.7,175.7z M58.1,223.5l154.1-77.8L162.5,112l10.6-11.1
		l79.5,53.8L83,240.4L58.1,223.5L58.1,223.5z"/>
	<polygon class="st1" points="252.6,154.8 83,240.4 58.1,223.5 212.2,145.7 162.5,112 173.1,100.9 	"/>
	<polygon class="st1" points="61.6,123.2 111.4,156.9 100.8,168.1 21.3,114.2 206.1,20.8 217.9,44.3 	"/>
	
		<linearGradient id="SVGID_1_" gradientUnits="userSpaceOnUse" x1="85.3294" y1="38.2214" x2="188.6661" y2="217.2094" gradientTransform="matrix(1 0 0 -1 0 262)">
		<stop  offset="0" style="stop-color:#000994"/>
		<stop  offset="1" style="stop-color:#55D1FF"/>
	</linearGradient>
	<polygon class="st2" points="153.4,113 200.6,145 66.3,212.8 101.7,175.7 120.5,156 73.2,123.9 207.9,55.9 172.3,93.2 	"/>
</g>
</svg>
